<svg width="48" height="49" viewBox="0 0 48 49" fill="none" xmlns="http://www.w3.org/2000/svg">
<path d="M25.0229 47.4163C9.20367 47.4163 4.97705 30.9259 6.88758 20.1213C6.97074 19.651 7.58714 19.5156 7.85574 19.9104C8.68749 21.1329 9.42764 22.8987 10.654 22.7454C12.4972 22.515 13.7742 6.25049 24.6984 1.67408C25.0451 1.52886 25.4078 1.80439 25.3697 2.17827C24.8295 7.47824 28.0117 15.0659 33.6494 15.0659C36.8811 15.0659 39.0923 12.4866 40.1972 9.89633C40.5329 9.10949 41.6825 9.20868 41.875 10.0422C43.8466 18.5811 49.1172 47.4163 25.0229 47.4163Z" fill="#FF8F1F"/>
<path d="M17.1258 30.9234C17.4978 30.6108 18.0626 30.8253 18.147 31.3038C18.3447 32.4235 18.9945 34.3477 21.1262 34.3477C23.6905 34.3477 25.4307 27.2917 25.887 25.2165C25.9621 24.8751 26.2948 24.6433 26.6374 24.7129C33.0457 26.0159 36.1615 46.8246 22.0715 46.8246C11.8141 46.8246 14.1379 33.4335 17.1258 30.9234ZM34.6365 8.38842C34.8624 6.62198 31.6377 11.4534 31.6377 11.4534C31.6377 11.4534 34.0961 12.6146 34.6365 8.38842ZM2.14521 34.7324C2.21318 33.9804 1.24578 31.967 1.07449 32.7642C0.664525 34.6714 2.07724 35.4844 2.14521 34.7324Z" fill="#FFB636"/>
<path d="M30.2975 33.1809C30.0573 32.1787 29.1955 34.5065 29.3038 35.4547C29.4121 36.4028 30.8723 35.5786 30.2975 33.1809Z" fill="#FFD469"/>
</svg>
