<svg width="97" height="24" viewBox="0 0 97 24" fill="none" xmlns="http://www.w3.org/2000/svg">
<path d="M4.20402 20.1843V9.78802H0V6.66359H4.20402V4.36866C4.20402 3.04147 4.64948 1.98157 5.5404 1.18894C6.43132 0.396313 7.60992 0 9.07623 0H13.5587V3.04148H9.15975C8.71429 3.04148 8.35236 3.17051 8.07394 3.42857C7.81409 3.6682 7.68417 4 7.68417 4.42396V6.66359H13.5587V9.78802H7.68417V20.1843H4.20402Z" fill="white"/>
<path d="M25.8814 20.1843C24.8791 20.1843 23.9975 19.9816 23.2365 19.576C22.4941 19.1705 21.9094 18.5991 21.4825 17.8618C21.0556 17.106 20.8422 16.2396 20.8422 15.2627V3.12442H15.9421V0H24.3223V15.2627C24.3223 15.8157 24.4801 16.2581 24.7956 16.5899C25.1297 16.9032 25.5752 17.0599 26.132 17.0599H30.7536V20.1843H25.8814Z" fill="white"/>
<path d="M40.2644 20.4608C38.9652 20.4608 37.833 20.212 36.8678 19.7143C35.9027 19.2166 35.1509 18.5253 34.6127 17.6406C34.093 16.7373 33.8331 15.6866 33.8331 14.4885V10.6728C33.8331 9.47465 34.093 8.43318 34.6127 7.54839C35.1509 6.64516 35.9027 5.9447 36.8678 5.447C37.833 4.94931 38.9652 4.70046 40.2644 4.70046C41.5451 4.70046 42.6588 4.94931 43.6054 5.447C44.5706 5.9447 45.313 6.64516 45.8327 7.54839C46.3709 8.43318 46.6401 9.47465 46.6401 10.6728V13.4101H37.2019V14.4885C37.2019 15.5576 37.4618 16.3687 37.9815 16.9217C38.5012 17.4562 39.2714 17.7235 40.2923 17.7235C41.0718 17.7235 41.7029 17.5945 42.1855 17.3364C42.6681 17.0599 42.9743 16.6636 43.1042 16.1475H46.5287C46.2689 17.4562 45.5636 18.5069 44.4128 19.2995C43.2806 20.0737 41.8978 20.4608 40.2644 20.4608ZM43.2713 11.4747V10.6452C43.2713 9.59447 43.0207 8.79263 42.5196 8.23963C42.0184 7.6682 41.2667 7.38249 40.2644 7.38249C39.2622 7.38249 38.5012 7.6682 37.9815 8.23963C37.4618 8.81106 37.2019 9.62212 37.2019 10.6728V11.2535L43.5219 11.1982L43.2713 11.4747Z" fill="white"/>
<path d="M56.9583 20.4608C55.659 20.4608 54.5268 20.212 53.5617 19.7143C52.5965 19.2166 51.8448 18.5253 51.3065 17.6406C50.7868 16.7373 50.527 15.6866 50.527 14.4885V10.6728C50.527 9.47465 50.7868 8.43318 51.3065 7.54839C51.8448 6.64516 52.5965 5.9447 53.5617 5.447C54.5268 4.94931 55.659 4.70046 56.9583 4.70046C58.239 4.70046 59.3526 4.94931 60.2992 5.447C61.2644 5.9447 62.0068 6.64516 62.5265 7.54839C63.0648 8.43318 63.3339 9.47465 63.3339 10.6728V13.4101H53.8958V14.4885C53.8958 15.5576 54.1556 16.3687 54.6753 16.9217C55.195 17.4562 55.9653 17.7235 56.9861 17.7235C57.7657 17.7235 58.3967 17.5945 58.8793 17.3364C59.3619 17.0599 59.6682 16.6636 59.7981 16.1475H63.2226C62.9627 17.4562 62.2574 18.5069 61.1066 19.2995C59.9744 20.0737 58.5916 20.4608 56.9583 20.4608ZM59.9651 11.4747V10.6452C59.9651 9.59447 59.7146 8.79263 59.2134 8.23963C58.7123 7.6682 57.9606 7.38249 56.9583 7.38249C55.956 7.38249 55.195 7.6682 54.6753 8.23963C54.1556 8.81106 53.8958 9.62212 53.8958 10.6728V11.2535L60.2157 11.1982L59.9651 11.4747Z" fill="white"/>
<path d="M75.2947 20.1843C73.8284 20.1843 72.6777 19.7788 71.8424 18.9677C71.0258 18.1567 70.6174 17.0415 70.6174 15.6221V8.10138H66.4691V4.97696H70.6174V0.691244H74.1254V4.97696H79.9999V8.10138H74.1254V15.6221C74.1254 16.5806 74.5987 17.0599 75.5453 17.0599H79.7215V20.1843H75.2947Z" fill="white"/>
<path d="M83.6362 24V20.8756H97V24H83.6362Z" fill="white"/>
</svg>
